; OM File Header - Saved 2021/04/25 15:09:47
; (6.18 :patc (om-make-point 10 60) (om-make-point 50 50) (om-make-point 642 771) "" 183 0 "2021/04/25 11:18:48" "2021/04/25 15:09:47")
; End File Header
(in-package :om)(load-lib-for (quote ("OM-Data")))(setf *om-current-persistent* (om-load-patch1 "_euclidean-rhythm" (quote ((let ((box (om-load-boxcomment "comment" (om-make-point 259 30) (quote "evaluate n-cercle and chord-seq at once") nil (om-make-point 108 721) nil (om-make-color 0 0 0) (om-make-font "Verdana" 12 :family "Verdana" :style (quote (:plain)) :mode (quote nil))))) (when (fboundp (quote set-active)) (set-active box nil)) box) (let ((box (om-load-boxcomment "comment" (om-make-point 54 30) (quote "period") nil (om-make-point 118 165) nil (om-make-color 0 0 0) (om-make-font "Verdana" 12 :family "Verdana" :style (quote (:plain)) :mode (quote nil))))) (when (fboundp (quote set-active)) (set-active box nil)) box) (let ((box (om-load-boxcomment "comment" (om-make-point 63 30) (quote "rotation") nil (om-make-point 447 190) nil (om-make-color 0 0 0) (om-make-font "Verdana" 12 :family "Verdana" :style (quote (:plain)) :mode (quote nil))))) (when (fboundp (quote set-active)) (set-active box nil)) box) (let ((box (om-load-boxcomment "comment" (om-make-point 111 30) (quote "number of beats") nil (om-make-point 358 161) nil (om-make-color 0 0 0) (om-make-font "Verdana" 12 :family "Verdana" :style (quote (:plain)) :mode (quote nil))))) (when (fboundp (quote set-active)) (set-active box nil)) box) (let ((box (om-load-editor-box1 "TEXT-BOX" (quote text-box) (quote ((om-load-inputfun (quote input-funbox) "dialog-item text (string)" "text" "untitled"))) (om-make-point 340 317) (om-make-point 130 40) (om-make-dialog-item (quote text-box) (om-make-point 1 1) (om-make-point 102 20) "(2 1 2 2 1 2 2 1)" :font (om-make-font "Verdana" 11.0D0 :family "Verdana" :style (quote (:plain)) :mode (quote nil))) nil nil (pairlis (quote (winsize winpos)) (list (om-make-point 335 275) (om-make-point 10 40))) nil nil nil nil))) (when (fboundp (quote set-active)) (set-active box nil)) box) (let ((box (om-load-boxcall (quote abstraction) "euclidean-rhythm->chord-seq" (om-load-patch-abs1 "euclidean-rhythm->chord-seq" (quote ((let ((box (om-load-boxcomment "comment" (om-make-point 159 30) (quote "constrain to 0-12 range") nil (om-make-point 96 118) nil (om-make-color 0 0 0) (om-make-font "Verdana" 12 :family "Verdana" :style (quote (:plain)) :mode (quote nil))))) (when (fboundp (quote set-active)) (set-active box nil)) box) (let ((box (om-load-boxcomment "comment 2" (om-make-point 80 30) (quote "repetitions") nil (om-make-point 77 321) nil (om-make-color 0 0 0) (om-make-font "Verdana" 12 :family "Verdana" :style (quote (:plain)) :mode (quote nil))))) (when (fboundp (quote set-active)) (set-active box nil)) box) (let ((box (om-load-boxcall (quote bastype) "aux 2" (quote t) (quote nil) (om-make-point 82 246) (om-make-point 34 30) 48 "48" nil))) (when (fboundp (quote set-active)) (set-active box nil)) box) (let ((box (om-load-boxcomment "comment" (om-make-point 50 30) (quote "offset") nil (om-make-point 115 242) nil (om-make-color 0 0 0) (om-make-font "Verdana" 12 :family "Verdana" :style (quote (:plain)) :mode (quote nil))))) (when (fboundp (quote set-active)) (set-active box nil)) box) (let ((box (om-load-boxcomment "comment" (om-make-point 108 30) (quote "3-octave range") nil (om-make-point 89 178) nil (om-make-color 0 0 0) (om-make-font "Verdana" 12 :family "Verdana" :style (quote (:plain)) :mode (quote nil))))) (when (fboundp (quote set-active)) (set-active box nil)) box) (let ((box (om-load-boxcall (quote bastype) "aux" (quote t) (quote nil) (om-make-point 85 203) (om-make-point 27 30) 3 "3" nil))) (when (fboundp (quote set-active)) (set-active box nil)) box) (let ((box (om-load-boxcall (quote genfun) "OM-SCALE" (quote om-scale) (quote ((om-load-inputfun (quote input-funbox) "number or list" "SELF" 0) (om-load-inputfun (quote input-funbox) "a number" "MINOUT" 0) (om-load-inputfun (quote input-funbox) "a number" "MAXOUT" 12))) (om-make-point 37 104) nil nil nil nil 1))) (when (fboundp (quote set-active)) (set-active box nil)) box) (let ((box (om-load-boxout "output 3" 2 (om-make-point 230 524) (quote ((om-load-inputfun (quote input-funbox) "" "out" nil))) nil nil))) (when (fboundp (quote set-active)) (set-active box nil)) box) (let ((box (om-load-boxout "output 2" 1 (om-make-point 145 608) (quote ((om-load-inputfun (quote input-funbox) "" "out" nil))) nil nil))) (when (fboundp (quote set-active)) (set-active box nil)) box) (let ((box (om-load-boxout "output" 0 (om-make-point 78 606) (quote ((om-load-inputfun (quote input-funbox) "" "out" nil))) nil nil))) (when (fboundp (quote set-active)) (set-active box nil)) box) (let ((box (om-load-boxin "input 2" 1 (om-make-point 153 274) "" nil nil nil))) (when (fboundp (quote set-active)) (set-active box nil)) box) (let ((box (om-load-boxin "input" 0 (om-make-point 35 37) "" nil nil nil))) (when (fboundp (quote set-active)) (set-active box nil)) box) (let ((box (om-load-boxcall (quote lispfun) "BUTLAST" (quote butlast) (quote ((om-load-inputfun (quote input-funbox) "LIST" "LIST" nil))) (om-make-point 41 169) nil nil nil nil 1))) (when (fboundp (quote set-active)) (set-active box nil)) box) (let ((box (om-load-boxcall (quote genfun) "OM* 3" (quote om*) (quote ((om-load-inputfun (quote input-funbox) "number or list" "ARG1" 0) (om-load-inputfun (quote input-funbox) "number or list" "ARG2" 100))) (om-make-point 57 375) nil nil nil nil 1))) (when (fboundp (quote set-active)) (set-active box nil)) box) (let ((box (om-load-boxcall (quote genfun) "OM* 2" (quote om*) (quote ((om-load-inputfun (quote input-funbox) "number or list" "ARG1" 0) (om-load-inputfun (quote input-funbox) "number or list" "ARG2" 3))) (om-make-point 55 233) nil nil nil nil 1))) (when (fboundp (quote set-active)) (set-active box nil)) box) (let ((box (om-load-boxcall (quote genfun) "OM+" (quote om+) (quote ((om-load-inputfun (quote input-funbox) "number or list" "ARG1" 60) (om-load-inputfun (quote input-funbox) "number or list" "ARG2" 48))) (om-make-point 56 276) nil nil nil nil 1))) (when (fboundp (quote set-active)) (set-active box nil)) box) (let ((box (om-load-boxcall (quote genfun) "FLAT 2" (quote flat) (quote ((om-load-inputfun (quote input-funbox) "a list" "LST" nil))) (om-make-point 89 520) nil nil nil nil 1))) (when (fboundp (quote set-active)) (set-active box nil)) box) (let ((box (om-load-boxcall (quote genfun) "REPEAT-N 3" (quote repeat-n) (quote ((om-load-inputfun (quote input-funbox) "something" "SELF" nil) (om-load-inputfun (quote input-funbox) "times" "N" 0))) (om-make-point 76 423) nil nil nil nil 1))) (when (fboundp (quote set-active)) (set-active box nil)) box) (let ((box (om-load-boxcall (quote bastype) "aux 4" (quote t) (quote nil) (om-make-point 100 350) (om-make-point 27 30) 4 "4" nil))) (when (fboundp (quote set-active)) (set-active box nil)) box) (let ((box (om-load-boxcall (quote genfun) "FLAT" (quote flat) (quote ((om-load-inputfun (quote input-funbox) "a list" "LST" nil))) (om-make-point 171 460) nil nil nil nil 1))) (when (fboundp (quote set-active)) (set-active box nil)) box) (let ((box (om-load-boxcall (quote genfun) "REPEAT-N 2" (quote repeat-n) (quote ((om-load-inputfun (quote input-funbox) "something" "SELF" nil) (om-load-inputfun (quote input-funbox) "times" "N" 12))) (om-make-point 158 392) nil nil nil nil 1))) (when (fboundp (quote set-active)) (set-active box nil)) box) (let ((box (om-load-boxcall (quote genfun) "DX->X" (quote dx->x) (quote ((om-load-inputfun (quote input-funbox) "a number" "START" 0) (om-load-inputfun (quote input-funbox) "a list of numbers" "LIST" (list 1 1)))) (om-make-point 154 532) nil nil nil nil 1))) (when (fboundp (quote set-active)) (set-active box nil)) box) (let ((box (om-load-boxcall (quote genfun) "OM*" (quote om*) (quote ((om-load-inputfun (quote input-funbox) "number or list" "ARG1" 0) (om-load-inputfun (quote input-funbox) "number or list" "ARG2" 100))) (om-make-point 168 343) nil nil nil nil 1))) (when (fboundp (quote set-active)) (set-active box nil)) box))) (quote ((11 0 6 0 nil 0) (19 0 7 0 nil 0) (21 0 8 0 nil 0) (16 0 9 0 nil 0) (6 0 12 0 nil 0) (15 0 13 0 nil 0) (12 0 14 0 nil 0) (5 0 14 1 nil 0) (14 0 15 0 nil 0) (2 0 15 1 nil 0) (17 0 16 0 nil 0) (13 0 17 0 nil 0) (18 0 17 1 nil 0) (20 0 19 0 nil 0) (22 0 20 0 nil 0) (18 0 20 1 nil 0) (19 0 21 1 nil 0) (10 0 22 0 nil 0))) 6.18 nil "" (om-make-point 200 200) (om-make-point 305 676)) (quote ((om-load-inputfun (quote input-funbox) "" "input" nil) (om-load-inputfun (quote input-funbox) "" "input 2" nil))) (om-make-point 3449/12 5267/12) nil (list (list 4800 69600/13 73200/13 80400/13 87600/13 91200/13 98400/13 105600/13 4800 69600/13 73200/13 80400/13 87600/13 91200/13 98400/13 105600/13 4800 69600/13 73200/13 80400/13 87600/13 91200/13 98400/13 105600/13 4800 69600/13 73200/13 80400/13 87600/13 91200/13 98400/13 105600/13) (list 0 200 300 500 700 800 1000 1200 1300 1500 1600 1800 2000 2100 2300 2500 2600 2800 2900 3100 3300 3400 3600 3800 3900 4100 4200 4400 4600 4700 4900 5100 5200) (list 200 100 200 200 100 200 200 100 200 100 200 200 100 200 200 100 200 100 200 200 100 200 200 100 200 100 200 200 100 200 200 100)) nil "euclidean-rhythm->chord-seq"))) (when (fboundp (quote set-active)) (set-active box nil)) box) (let ((box (om-load-boxcall (quote bastype) "aux 3" (quote t) (quote nil) (om-make-point 369 192) (om-make-point 27 30) 8 "8" nil))) (when (fboundp (quote set-active)) (set-active box nil)) box) (let ((box (om-load-boxcall (quote bastype) "aux 2" (quote t) (quote nil) (om-make-point 122 190) (om-make-point 34 30) 13 "13" nil))) (when (fboundp (quote set-active)) (set-active box nil)) box) (let ((box (om-load-boxcall (quote bastype) "aux" (quote t) (quote nil) (om-make-point 421 193) (om-make-point 27 30) 0 "0" nil))) (when (fboundp (quote set-active)) (set-active box nil)) box) (let ((box (om-load-boxcall (quote lispfun) "LIST" (quote list) (quote ((om-load-inputfun (quote input-funbox) "add-input" "add-input" 0) (om-load-inputfun (quote input-funbox) "add-input" "add-input" 0))) (om-make-point 69 712) nil nil nil nil 1))) (when (fboundp (quote set-active)) (set-active box nil)) box) (let ((box (om-load-editor-box1 "CHORD-SEQ" (quote chord-seq) (quote ((om-load-inputfun (quote input-funbox) "object" "self" nil) (om-load-inputfun (quote input-funbox) "pitches (mc): list or list of lists" "lmidic" (list 6000)) (om-load-inputfun (quote input-funbox) "onsets (ms): list" "lonset" (list 0 1000)) (om-load-inputfun (quote input-funbox) "durations (ms): list or list of lists" "ldur" (list 1000)) (om-load-inputfun (quote input-funbox) "velocities (0-127): list or list of lists" "lvel" (list 70)) (om-load-inputfun (quote input-funbox) "offsets (ms): list or list of lists" "loffset" (list 0)) (om-load-inputfun (quote input-funbox) "MIDI channels (1-16): list or list of lists" "lchan" (list 1)) (om-load-inputfun (quote input-funbox) "relative chords duration (0-100)" "legato" 0))) (om-make-point 259 515) (om-make-point 346 189) (let ((newobj (when (find-class (quote chord-seq) nil) (make-instance (quote chord-seq) :lmidic (quote ((4800) (5354) (5631) (6185) (6738) (7015) (7569) (8123) (4800) (5354) (5631) (6185) (6738) (7015) (7569) (8123) (4800) (5354) (5631) (6185) (6738) (7015) (7569) (8123) (4800) (5354) (5631) (6185) (6738) (7015) (7569) (8123))) :lonset (quote (0 200 300 500 700 800 1000 1200 1300 1500 1600 1800 2000 2100 2300 2500 2600 2800 2900 3100 3300 3400 3600 3800 3900 4100 4200 4400 4600 4700 4900 5100 5200)) :ldur (quote ((200) (100) (200) (200) (100) (200) (200) (100) (200) (100) (200) (200) (100) (200) (200) (100) (200) (100) (200) (200) (100) (200) (200) (100) (200) (100) (200) (200) (100) (200) (200) (100))) :lvel (quote ((70) (70) (70) (70) (70) (70) (70) (70) (70) (70) (70) (70) (70) (70) (70) (70) (70) (70) (70) (70) (70) (70) (70) (70) (70) (70) (70) (70) (70) (70) (70) (70))) :loffset (quote ((0) (0) (0) (0) (0) (0) (0) (0) (0) (0) (0) (0) (0) (0) (0) (0) (0) (0) (0) (0) (0) (0) (0) (0) (0) (0) (0) (0) (0) (0) (0) (0))) :lchan (quote ((1) (1) (1) (1) (1) (1) (1) (1) (1) (1) (1) (1) (1) (1) (1) (1) (1) (1) (1) (1) (1) (1) (1) (1) (1) (1) (1) (1) (1) (1) (1) (1))) :legato 0)))) (load-port-info newobj (quote ((0) (0) (0) (0) (0) (0) (0) (0) (0) (0) (0) (0) (0) (0) (0) (0) (0) (0) (0) (0) (0) (0) (0) (0) (0) (0) (0) (0) (0) (0) (0) (0)))) (init-mus-color newobj (quote nil)) (set-extra-pairs newobj (quote nil)) (set-patch-pairs newobj (quote nil)) (set-name newobj nil) (set-tonalite newobj nil) newobj) nil nil (pairlis (quote (scale show-stems cursor-mode obj-mode score-mode winpos winsize mode grillestep notechancolor? zoom player inport outport deltapict cmnpref staff fontsize approx)) (list nil (quote t) (quote :normal) 1 0 (om-make-point 400 25) (om-make-point 370 280) 0 1000 nil 1 (quote :osc-scoreplayer) nil nil (om-make-point 0 0) (let ((newobj (make-instance (quote edition-values)))) (setf (paper-size newobj) (om-make-point 600 800)) (setf (top-margin newobj) 2) (setf (left-margin newobj) 1) (setf (right-margin newobj) 1) (setf (bottom-margin newobj) 1) (setf (orientation newobj) nil) (setf (scale newobj) nil) (setf (system-space newobj) (quote (1))) (setf (system-color newobj) (quote nil)) (setf (line-space newobj) 1) (setf (title newobj) nil) (setf (show-title? newobj) nil) (setf (show-page? newobj) nil) (setf (sheet-id newobj) nil) (setf (page-mode newobj) nil) newobj) (quote ggff) 24 4)) t nil nil nil))) (when (fboundp (quote set-active)) (set-active box nil)) box) (let ((box (om-load-boxcall (quote genfun) "DX->X" (quote dx->x) (quote ((om-load-inputfun (quote input-funbox) "a number" "START" 0) (om-load-inputfun (quote input-funbox) "a list of numbers" "LIST" (list 1 1)))) (om-make-point 175 371) nil nil nil nil 1))) (when (fboundp (quote set-active)) (set-active box nil)) box) (let ((box (om-load-editor-box1 "N-CERCLE" (quote n-cercle) (quote ((om-load-inputfun (quote input-funbox) "object" "self" nil) (om-load-inputfun (quote input-funbox) "" "n" 12) (om-load-inputfun (quote input-funbox) "" "puntos" (list 0 5 7)))) (om-make-point 23 517) (om-make-point 227 187) (if (find-class (quote n-cercle) nil) (make-instance (quote n-cercle) :n 13 :puntos (list (list 0 2 3 5 7 8 10 12 13)) :from-file t)) nil nil (pairlis (quote (winsize winpos)) (list (om-make-point 335 275) (om-make-point 10 40))) t nil nil nil))) (when (fboundp (quote set-active)) (set-active box nil)) box) (let ((box (om-load-boxcall (quote genfun) "EUCLIDEAN-RHYTHM" (quote euclidean-rhythm) (quote ((om-load-inputfun (quote input-funbox) "integer" "NUMBEATS" 5) (om-load-inputfun (quote input-funbox) "integer" "PERIOD" 13) (om-load-inputfun (quote input-funbox) "integer" "ROTATION" 3))) (om-make-point 355 237) nil nil nil nil 1))) (when (fboundp (quote set-active)) (set-active box nil)) box) (let ((box (om-load-boxcomment "comment 3" (om-make-point 166 42) (quote "OM-Data tutorials") "" (om-make-point 103 21) nil (om-make-color 0.1404733 0.44938862 0.6792451) (om-make-font "Arial" 18.0D0 :family "Arial" :style (quote (:bold)) :mode (quote nil))))) (when (fboundp (quote set-active)) (set-active box nil)) box) (let ((box (om-load-boxcomment "comment 2" (om-make-point 202 30) (quote "[www.felipe-tovar-henao.com]") "" (om-make-point 79 44) nil (om-make-color 0 0 0) (om-make-font "Verdana" 12 :family "Verdana" :style (quote (:plain)) :mode (quote nil))))) (when (fboundp (quote set-active)) (set-active box nil)) box) (let ((box (om-load-boxcomment "comment" (om-make-point 384 94) (quote "euclidean-rhythm, as the name suggests, computes the Euclidean rhythm for a given period k and number of beats/pulses n, where n < k. The output can be interpreted as a list of intervals or distances between between pulses") "" (om-make-point 34 77) nil (om-make-color 0.1404733 0.44938862 0.6792451) (om-make-font "Verdana" 12.0D0 :family "Verdana" :style (quote (:italic)) :mode (quote nil))))) (when (fboundp (quote set-active)) (set-active box nil)) box))) (quote ((13 0 4 0 nil 0) (11 0 5 0 nil 0) (4 0 5 1 nil 0) (12 0 9 0 nil 0) (10 0 9 1 nil 0) (5 0 10 1 nil 0) (5 1 10 2 nil 0) (5 2 10 3 nil 0) (4 0 11 1 nil 0) (7 0 12 1 nil 0) (11 0 12 2 nil 0) (6 0 13 0 nil 0) (7 0 13 1 nil 0) (8 0 13 2 nil 0))) nil 6.18))
