; OM File Header - Saved 2021/06/02 13:35:11
; (6.18 :patc (om-make-point 10 10) (om-make-point 385 147) (om-make-point 802 487) "" 183 0 "2021/05/16 15:34:32" "2021/06/02 13:26:17")
; End File Header
(in-package :om)(load-lib-for (quote ("OM-Data")))(setf *om-current-persistent* (om-load-patch1 "correlation" (quote ((let ((box (om-load-boxcomment "comment 3" (om-make-point 202 30) (quote "[www.felipe-tovar-henao.com]") "" (om-make-point 73 44) nil (om-make-color 0 0 0) (om-make-font "Verdana" 12 :family "Verdana" :style (quote (:plain)) :mode (quote nil))))) (when (fboundp (quote set-active)) (set-active box nil)) box) (let ((box (om-load-boxcomment "comment 2" (om-make-point 398 30) (quote "list-correlation computes the degree of correlation is a data set") "" (om-make-point 28 77) nil (om-make-color 0.1404733 0.44938862 0.6792451) (om-make-font "Verdana" 12.0D0 :family "Verdana" :style (quote (:italic)) :mode (quote nil))))) (when (fboundp (quote set-active)) (set-active box nil)) box) (let ((box (om-load-boxcomment "comment" (om-make-point 166 42) (quote "OM-Data tutorials") "" (om-make-point 87 21) nil (om-make-color 0.1404733 0.44938862 0.6792451) (om-make-font "Arial" 18.0D0 :family "Arial" :style (quote (:bold)) :mode (quote nil))))) (when (fboundp (quote set-active)) (set-active box nil)) box) (let ((box (om-load-editor-box1 "TEXT-BOX" (quote text-box) (quote ((om-load-inputfun (quote input-funbox) "dialog-item text (string)" "text" "untitled"))) (om-make-point 321 427) (om-make-point 263 40) (om-make-dialog-item (quote text-box) (om-make-point 1 1) (om-make-point 235 20) "(-0.9836279 0.98345006 0.115676195)" :font (om-make-font "Verdana" 11.0D0 :family "Verdana" :style (quote (:plain)) :mode (quote nil))) nil nil (pairlis (quote (winpos winsize)) (list (om-make-point 10 40) (om-make-point 335 275))) nil nil nil nil))) (when (fboundp (quote set-active)) (set-active box nil)) box) (let ((box (om-load-editor-box1 "BPC-LIB 3" (quote bpc-lib) (quote ((om-load-inputfun (quote input-funbox) "object" "self" nil) (om-load-inputfun (quote input-funbox) "list of BPC objects" "bpf-list" (list (let ((newobj (when (find-class (quote bpc) nil) (let ((newbpf (simple-bpf-from-list (quote nil) (quote nil) (quote bpc) 0))) (setf (bpfcolor newbpf) (om-make-color 0 0 0)) (set-name newbpf nil) newbpf)))) (when newobj) newobj))))) (om-make-point 510 257) (om-make-point 177 109) (if (find-class (quote bpc-lib) nil) (make-instance (quote bpc-lib) :bpf-list (list (let ((newobj (when (find-class (quote bpc) nil) (let ((newbpf (simple-bpf-from-list (quote (0.1 0.1)) (quote (0.0 0.0)) (quote bpc) 2))) (setf (bpfcolor newbpf) (om-make-color 0 0 0)) (set-name newbpf nil) newbpf)))) (when newobj) newobj) (let ((newobj (when (find-class (quote bpc) nil) (let ((newbpf (simple-bpf-from-list (quote (0.05 0.05)) (quote (0.13 0.13)) (quote bpc) 2))) (setf (bpfcolor newbpf) (om-make-color 0 0 0)) (set-name newbpf nil) newbpf)))) (when newobj) newobj) (let ((newobj (when (find-class (quote bpc) nil) (let ((newbpf (simple-bpf-from-list (quote (0.07 0.07)) (quote (-0.09 -0.09)) (quote bpc) 2))) (setf (bpfcolor newbpf) (om-make-color 0 0 0)) (set-name newbpf nil) newbpf)))) (when newobj) newobj) (let ((newobj (when (find-class (quote bpc) nil) (let ((newbpf (simple-bpf-from-list (quote (0.09 0.09)) (quote (0.17 0.17)) (quote bpc) 2))) (setf (bpfcolor newbpf) (om-make-color 0 0 0)) (set-name newbpf nil) newbpf)))) (when newobj) newobj) (let ((newobj (when (find-class (quote bpc) nil) (let ((newbpf (simple-bpf-from-list (quote (0.01 0.01)) (quote (0.06 0.06)) (quote bpc) 2))) (setf (bpfcolor newbpf) (om-make-color 0 0 0)) (set-name newbpf nil) newbpf)))) (when newobj) newobj) (let ((newobj (when (find-class (quote bpc) nil) (let ((newbpf (simple-bpf-from-list (quote (0.02 0.02)) (quote (-0.14 -0.14)) (quote bpc) 2))) (setf (bpfcolor newbpf) (om-make-color 0 0 0)) (set-name newbpf nil) newbpf)))) (when newobj) newobj) (let ((newobj (when (find-class (quote bpc) nil) (let ((newbpf (simple-bpf-from-list (quote (0.01 0.01)) (quote (0.08 0.08)) (quote bpc) 2))) (setf (bpfcolor newbpf) (om-make-color 0 0 0)) (set-name newbpf nil) newbpf)))) (when newobj) newobj) (let ((newobj (when (find-class (quote bpc) nil) (let ((newbpf (simple-bpf-from-list (quote (0.03 0.03)) (quote (-0.1 -0.1)) (quote bpc) 2))) (setf (bpfcolor newbpf) (om-make-color 0 0 0)) (set-name newbpf nil) newbpf)))) (when newobj) newobj) (let ((newobj (when (find-class (quote bpc) nil) (let ((newbpf (simple-bpf-from-list (quote (0.01 0.01)) (quote (0.07 0.07)) (quote bpc) 2))) (setf (bpfcolor newbpf) (om-make-color 0 0 0)) (set-name newbpf nil) newbpf)))) (when newobj) newobj) (let ((newobj (when (find-class (quote bpc) nil) (let ((newbpf (simple-bpf-from-list (quote (0.05 0.05)) (quote (0.0 0.0)) (quote bpc) 2))) (setf (bpfcolor newbpf) (om-make-color 0 0 0)) (set-name newbpf nil) newbpf)))) (when newobj) newobj) (let ((newobj (when (find-class (quote bpc) nil) (let ((newbpf (simple-bpf-from-list (quote (0.03 0.03)) (quote (0.08 0.08)) (quote bpc) 2))) (setf (bpfcolor newbpf) (om-make-color 0 0 0)) (set-name newbpf nil) newbpf)))) (when newobj) newobj) (let ((newobj (when (find-class (quote bpc) nil) (let ((newbpf (simple-bpf-from-list (quote (0.0 0.0)) (quote (0.0 0.0)) (quote bpc) 2))) (setf (bpfcolor newbpf) (om-make-color 0 0 0)) (set-name newbpf nil) newbpf)))) (when newobj) newobj) (let ((newobj (when (find-class (quote bpc) nil) (let ((newbpf (simple-bpf-from-list (quote (0.06 0.06)) (quote (-0.28 -0.28)) (quote bpc) 2))) (setf (bpfcolor newbpf) (om-make-color 0 0 0)) (set-name newbpf nil) newbpf)))) (when newobj) newobj) (let ((newobj (when (find-class (quote bpc) nil) (let ((newbpf (simple-bpf-from-list (quote (0.1 0.1)) (quote (0.24 0.24)) (quote bpc) 2))) (setf (bpfcolor newbpf) (om-make-color 0 0 0)) (set-name newbpf nil) newbpf)))) (when newobj) newobj) (let ((newobj (when (find-class (quote bpc) nil) (let ((newbpf (simple-bpf-from-list (quote (0.01 0.01)) (quote (0.0 0.0)) (quote bpc) 2))) (setf (bpfcolor newbpf) (om-make-color 0 0 0)) (set-name newbpf nil) newbpf)))) (when newobj) newobj) (let ((newobj (when (find-class (quote bpc) nil) (let ((newbpf (simple-bpf-from-list (quote (0.03 0.03)) (quote (-0.08 -0.08)) (quote bpc) 2))) (setf (bpfcolor newbpf) (om-make-color 0 0 0)) (set-name newbpf nil) newbpf)))) (when newobj) newobj) (let ((newobj (when (find-class (quote bpc) nil) (let ((newbpf (simple-bpf-from-list (quote (0.09 0.09)) (quote (0.38 0.38)) (quote bpc) 2))) (setf (bpfcolor newbpf) (om-make-color 0 0 0)) (set-name newbpf nil) newbpf)))) (when newobj) newobj) (let ((newobj (when (find-class (quote bpc) nil) (let ((newbpf (simple-bpf-from-list (quote (0.0 0.0)) (quote (0.02 0.02)) (quote bpc) 2))) (setf (bpfcolor newbpf) (om-make-color 0 0 0)) (set-name newbpf nil) newbpf)))) (when newobj) newobj) (let ((newobj (when (find-class (quote bpc) nil) (let ((newbpf (simple-bpf-from-list (quote (0.06 0.06)) (quote (-0.32 -0.32)) (quote bpc) 2))) (setf (bpfcolor newbpf) (om-make-color 0 0 0)) (set-name newbpf nil) newbpf)))) (when newobj) newobj) (let ((newobj (when (find-class (quote bpc) nil) (let ((newbpf (simple-bpf-from-list (quote (0.0 0.0)) (quote (0.03 0.03)) (quote bpc) 2))) (setf (bpfcolor newbpf) (om-make-color 0 0 0)) (set-name newbpf nil) newbpf)))) (when newobj) newobj) (let ((newobj (when (find-class (quote bpc) nil) (let ((newbpf (simple-bpf-from-list (quote (0.04 0.04)) (quote (0.12 0.12)) (quote bpc) 2))) (setf (bpfcolor newbpf) (om-make-color 0 0 0)) (set-name newbpf nil) newbpf)))) (when newobj) newobj) (let ((newobj (when (find-class (quote bpc) nil) (let ((newbpf (simple-bpf-from-list (quote (0.0 0.0)) (quote (-0.03 -0.03)) (quote bpc) 2))) (setf (bpfcolor newbpf) (om-make-color 0 0 0)) (set-name newbpf nil) newbpf)))) (when newobj) newobj) (let ((newobj (when (find-class (quote bpc) nil) (let ((newbpf (simple-bpf-from-list (quote (0.06 0.06)) (quote (0.0 0.0)) (quote bpc) 2))) (setf (bpfcolor newbpf) (om-make-color 0 0 0)) (set-name newbpf nil) newbpf)))) (when newobj) newobj) (let ((newobj (when (find-class (quote bpc) nil) (let ((newbpf (simple-bpf-from-list (quote (0.07 0.07)) (quote (0.0 0.0)) (quote bpc) 2))) (setf (bpfcolor newbpf) (om-make-color 0 0 0)) (set-name newbpf nil) newbpf)))) (when newobj) newobj) (let ((newobj (when (find-class (quote bpc) nil) (let ((newbpf (simple-bpf-from-list (quote (0.0 0.0)) (quote (0.0 0.0)) (quote bpc) 2))) (setf (bpfcolor newbpf) (om-make-color 0 0 0)) (set-name newbpf nil) newbpf)))) (when newobj) newobj) (let ((newobj (when (find-class (quote bpc) nil) (let ((newbpf (simple-bpf-from-list (quote (0.1 0.1)) (quote (0.14 0.14)) (quote bpc) 2))) (setf (bpfcolor newbpf) (om-make-color 0 0 0)) (set-name newbpf nil) newbpf)))) (when newobj) newobj) (let ((newobj (when (find-class (quote bpc) nil) (let ((newbpf (simple-bpf-from-list (quote (0.0 0.0)) (quote (-0.04 -0.04)) (quote bpc) 2))) (setf (bpfcolor newbpf) (om-make-color 0 0 0)) (set-name newbpf nil) newbpf)))) (when newobj) newobj) (let ((newobj (when (find-class (quote bpc) nil) (let ((newbpf (simple-bpf-from-list (quote (0.08 0.08)) (quote (0.36 0.36)) (quote bpc) 2))) (setf (bpfcolor newbpf) (om-make-color 0 0 0)) (set-name newbpf nil) newbpf)))) (when newobj) newobj) (let ((newobj (when (find-class (quote bpc) nil) (let ((newbpf (simple-bpf-from-list (quote (0.0 0.0)) (quote (0.07 0.07)) (quote bpc) 2))) (setf (bpfcolor newbpf) (om-make-color 0 0 0)) (set-name newbpf nil) newbpf)))) (when newobj) newobj) (let ((newobj (when (find-class (quote bpc) nil) (let ((newbpf (simple-bpf-from-list (quote (0.09 0.09)) (quote (0.0 0.0)) (quote bpc) 2))) (setf (bpfcolor newbpf) (om-make-color 0 0 0)) (set-name newbpf nil) newbpf)))) (when newobj) newobj)) :from-file t)) nil nil (pairlis (quote (winsize winpos picture)) (list (om-make-point 446 283) (om-make-point 10 40) nil)) t nil nil nil))) (when (fboundp (quote set-active)) (set-active box nil)) box) (let ((box (om-load-boxcall (quote genfun) "PLOT-POINTS 3" (quote plot-points) (quote ((om-load-inputfun (quote input-funbox) "list" "POINTS" (list (list -2 2) (list 0 0) (list 1 -1) (list -1 1) (list -4 3) (list -3 4))))) (om-make-point 537 178) nil nil nil nil 1))) (when (fboundp (quote set-active)) (set-active box nil)) box) (let ((box (om-load-editor-box1 "BPC-LIB 2" (quote bpc-lib) (quote ((om-load-inputfun (quote input-funbox) "object" "self" nil) (om-load-inputfun (quote input-funbox) "list of BPC objects" "bpf-list" (list (let ((newobj (when (find-class (quote bpc) nil) (let ((newbpf (simple-bpf-from-list (quote nil) (quote nil) (quote bpc) 0))) (setf (bpfcolor newbpf) (om-make-color 0 0 0)) (set-name newbpf nil) newbpf)))) (when newobj) newobj))))) (om-make-point 266 259) (om-make-point 177 109) (if (find-class (quote bpc-lib) nil) (make-instance (quote bpc-lib) :bpf-list (list (let ((newobj (when (find-class (quote bpc) nil) (let ((newbpf (simple-bpf-from-list (quote (0.09263822 0.09263822)) (quote (0.108738214 0.108738214)) (quote bpc) 2))) (setf (bpfcolor newbpf) (om-make-color 0 0 0)) (set-name newbpf nil) newbpf)))) (when newobj) newobj) (let ((newobj (when (find-class (quote bpc) nil) (let ((newbpf (simple-bpf-from-list (quote (0.08404215 0.08404215)) (quote (0.084442146 0.084442146)) (quote bpc) 2))) (setf (bpfcolor newbpf) (om-make-color 0 0 0)) (set-name newbpf nil) newbpf)))) (when newobj) newobj) (let ((newobj (when (find-class (quote bpc) nil) (let ((newbpf (simple-bpf-from-list (quote (0.042742405 0.042742405)) (quote (0.062442407 0.062442407)) (quote bpc) 2))) (setf (bpfcolor newbpf) (om-make-color 0 0 0)) (set-name newbpf nil) newbpf)))) (when newobj) newobj) (let ((newobj (when (find-class (quote bpc) nil) (let ((newbpf (simple-bpf-from-list (quote (0.043655396 0.043655396)) (quote (0.051855397 0.051855397)) (quote bpc) 2))) (setf (bpfcolor newbpf) (om-make-color 0 0 0)) (set-name newbpf nil) newbpf)))) (when newobj) newobj) (let ((newobj (when (find-class (quote bpc) nil) (let ((newbpf (simple-bpf-from-list (quote (0.076208584 0.076208584)) (quote (0.08520858 0.08520858)) (quote bpc) 2))) (setf (bpfcolor newbpf) (om-make-color 0 0 0)) (set-name newbpf nil) newbpf)))) (when newobj) newobj) (let ((newobj (when (find-class (quote bpc) nil) (let ((newbpf (simple-bpf-from-list (quote (0.056388356 0.056388356)) (quote (0.07498836 0.07498836)) (quote bpc) 2))) (setf (bpfcolor newbpf) (om-make-color 0 0 0)) (set-name newbpf nil) newbpf)))) (when newobj) newobj) (let ((newobj (when (find-class (quote bpc) nil) (let ((newbpf (simple-bpf-from-list (quote (0.03376291 0.03376291)) (quote (0.04166291 0.04166291)) (quote bpc) 2))) (setf (bpfcolor newbpf) (om-make-color 0 0 0)) (set-name newbpf nil) newbpf)))) (when newobj) newobj) (let ((newobj (when (find-class (quote bpc) nil) (let ((newbpf (simple-bpf-from-list (quote (0.09414866 0.09414866)) (quote (0.100148656 0.100148656)) (quote bpc) 2))) (setf (bpfcolor newbpf) (om-make-color 0 0 0)) (set-name newbpf nil) newbpf)))) (when newobj) newobj) (let ((newobj (when (find-class (quote bpc) nil) (let ((newbpf (simple-bpf-from-list (quote (0.0917659 0.0917659)) (quote (0.0938659 0.0938659)) (quote bpc) 2))) (setf (bpfcolor newbpf) (om-make-color 0 0 0)) (set-name newbpf nil) newbpf)))) (when newobj) newobj) (let ((newobj (when (find-class (quote bpc) nil) (let ((newbpf (simple-bpf-from-list (quote (0.030897463 0.030897463)) (quote (0.045597464 0.045597464)) (quote bpc) 2))) (setf (bpfcolor newbpf) (om-make-color 0 0 0)) (set-name newbpf nil) newbpf)))) (when newobj) newobj) (let ((newobj (when (find-class (quote bpc) nil) (let ((newbpf (simple-bpf-from-list (quote (0.0994042 0.0994042)) (quote (0.11210421 0.11210421)) (quote bpc) 2))) (setf (bpfcolor newbpf) (om-make-color 0 0 0)) (set-name newbpf nil) newbpf)))) (when newobj) newobj) (let ((newobj (when (find-class (quote bpc) nil) (let ((newbpf (simple-bpf-from-list (quote (0.0016374707 0.0016374707)) (quote (0.01723747 0.01723747)) (quote bpc) 2))) (setf (bpfcolor newbpf) (om-make-color 0 0 0)) (set-name newbpf nil) newbpf)))) (when newobj) newobj) (let ((newobj (when (find-class (quote bpc) nil) (let ((newbpf (simple-bpf-from-list (quote (6.90043E-4 6.90043E-4)) (quote (0.006690043 0.006690043)) (quote bpc) 2))) (setf (bpfcolor newbpf) (om-make-color 0 0 0)) (set-name newbpf nil) newbpf)))) (when newobj) newobj) (let ((newobj (when (find-class (quote bpc) nil) (let ((newbpf (simple-bpf-from-list (quote (0.032232654 0.032232654)) (quote (0.044032656 0.044032656)) (quote bpc) 2))) (setf (bpfcolor newbpf) (om-make-color 0 0 0)) (set-name newbpf nil) newbpf)))) (when newobj) newobj) (let ((newobj (when (find-class (quote bpc) nil) (let ((newbpf (simple-bpf-from-list (quote (0.016872574 0.016872574)) (quote (0.022072573 0.022072573)) (quote bpc) 2))) (setf (bpfcolor newbpf) (om-make-color 0 0 0)) (set-name newbpf nil) newbpf)))) (when newobj) newobj) (let ((newobj (when (find-class (quote bpc) nil) (let ((newbpf (simple-bpf-from-list (quote (0.07603133 0.07603133)) (quote (0.09193132 0.09193132)) (quote bpc) 2))) (setf (bpfcolor newbpf) (om-make-color 0 0 0)) (set-name newbpf nil) newbpf)))) (when newobj) newobj) (let ((newobj (when (find-class (quote bpc) nil) (let ((newbpf (simple-bpf-from-list (quote (0.030657877 0.030657877)) (quote (0.035057877 0.035057877)) (quote bpc) 2))) (setf (bpfcolor newbpf) (om-make-color 0 0 0)) (set-name newbpf nil) newbpf)))) (when newobj) newobj) (let ((newobj (when (find-class (quote bpc) nil) (let ((newbpf (simple-bpf-from-list (quote (0.041483976 0.041483976)) (quote (0.060483978 0.060483978)) (quote bpc) 2))) (setf (bpfcolor newbpf) (om-make-color 0 0 0)) (set-name newbpf nil) newbpf)))) (when newobj) newobj) (let ((newobj (when (find-class (quote bpc) nil) (let ((newbpf (simple-bpf-from-list (quote (0.042921137 0.042921137)) (quote (0.04322114 0.04322114)) (quote bpc) 2))) (setf (bpfcolor newbpf) (om-make-color 0 0 0)) (set-name newbpf nil) newbpf)))) (when newobj) newobj) (let ((newobj (when (find-class (quote bpc) nil) (let ((newbpf (simple-bpf-from-list (quote (0.03686317 0.03686317)) (quote (0.048963175 0.048963175)) (quote bpc) 2))) (setf (bpfcolor newbpf) (om-make-color 0 0 0)) (set-name newbpf nil) newbpf)))) (when newobj) newobj) (let ((newobj (when (find-class (quote bpc) nil) (let ((newbpf (simple-bpf-from-list (quote (0.08791767 0.08791767)) (quote (0.09951767 0.09951767)) (quote bpc) 2))) (setf (bpfcolor newbpf) (om-make-color 0 0 0)) (set-name newbpf nil) newbpf)))) (when newobj) newobj) (let ((newobj (when (find-class (quote bpc) nil) (let ((newbpf (simple-bpf-from-list (quote (0.067777895 0.067777895)) (quote (0.0785779 0.0785779)) (quote bpc) 2))) (setf (bpfcolor newbpf) (om-make-color 0 0 0)) (set-name newbpf nil) newbpf)))) (when newobj) newobj) (let ((newobj (when (find-class (quote bpc) nil) (let ((newbpf (simple-bpf-from-list (quote (0.0848402 0.0848402)) (quote (0.088240206 0.088240206)) (quote bpc) 2))) (setf (bpfcolor newbpf) (om-make-color 0 0 0)) (set-name newbpf nil) newbpf)))) (when newobj) newobj) (let ((newobj (when (find-class (quote bpc) nil) (let ((newbpf (simple-bpf-from-list (quote (0.065411404 0.065411404)) (quote (0.0806114 0.0806114)) (quote bpc) 2))) (setf (bpfcolor newbpf) (om-make-color 0 0 0)) (set-name newbpf nil) newbpf)))) (when newobj) newobj) (let ((newobj (when (find-class (quote bpc) nil) (let ((newbpf (simple-bpf-from-list (quote (0.017424833 0.017424833)) (quote (0.023024833 0.023024833)) (quote bpc) 2))) (setf (bpfcolor newbpf) (om-make-color 0 0 0)) (set-name newbpf nil) newbpf)))) (when newobj) newobj) (let ((newobj (when (find-class (quote bpc) nil) (let ((newbpf (simple-bpf-from-list (quote (0.09546237 0.09546237)) (quote (0.10496237 0.10496237)) (quote bpc) 2))) (setf (bpfcolor newbpf) (om-make-color 0 0 0)) (set-name newbpf nil) newbpf)))) (when newobj) newobj) (let ((newobj (when (find-class (quote bpc) nil) (let ((newbpf (simple-bpf-from-list (quote (0.06605327 0.06605327)) (quote (0.074253276 0.074253276)) (quote bpc) 2))) (setf (bpfcolor newbpf) (om-make-color 0 0 0)) (set-name newbpf nil) newbpf)))) (when newobj) newobj) (let ((newobj (when (find-class (quote bpc) nil) (let ((newbpf (simple-bpf-from-list (quote (0.07195313 0.07195313)) (quote (0.074153126 0.074153126)) (quote bpc) 2))) (setf (bpfcolor newbpf) (om-make-color 0 0 0)) (set-name newbpf nil) newbpf)))) (when newobj) newobj) (let ((newobj (when (find-class (quote bpc) nil) (let ((newbpf (simple-bpf-from-list (quote (0.0059355498 0.0059355498)) (quote (0.01463555 0.01463555)) (quote bpc) 2))) (setf (bpfcolor newbpf) (om-make-color 0 0 0)) (set-name newbpf nil) newbpf)))) (when newobj) newobj) (let ((newobj (when (find-class (quote bpc) nil) (let ((newbpf (simple-bpf-from-list (quote (0.037765455 0.037765455)) (quote (0.046065454 0.046065454)) (quote bpc) 2))) (setf (bpfcolor newbpf) (om-make-color 0 0 0)) (set-name newbpf nil) newbpf)))) (when newobj) newobj)) :from-file t)) nil nil (pairlis (quote (winsize winpos picture)) (list (om-make-point 335 275) (om-make-point 10 40) nil)) t nil nil nil))) (when (fboundp (quote set-active)) (set-active box nil)) box) (let ((box (om-load-boxcall (quote genfun) "PLOT-POINTS 2" (quote plot-points) (quote ((om-load-inputfun (quote input-funbox) "list" "POINTS" (list (list -2 2) (list 0 0) (list 1 -1) (list -1 1) (list -4 3) (list -3 4))))) (om-make-point 293 180) nil nil nil nil 1))) (when (fboundp (quote set-active)) (set-active box nil)) box) (let ((box (om-load-editor-box1 "BPC-LIB" (quote bpc-lib) (quote ((om-load-inputfun (quote input-funbox) "object" "self" nil) (om-load-inputfun (quote input-funbox) "list of BPC objects" "bpf-list" (list (let ((newobj (when (find-class (quote bpc) nil) (let ((newbpf (simple-bpf-from-list (quote nil) (quote nil) (quote bpc) 0))) (setf (bpfcolor newbpf) (om-make-color 0 0 0)) (set-name newbpf nil) newbpf)))) (when newobj) newobj))))) (om-make-point 18 263) (om-make-point 177 109) (if (find-class (quote bpc-lib) nil) (make-instance (quote bpc-lib) :bpf-list (list (let ((newobj (when (find-class (quote bpc) nil) (let ((newbpf (simple-bpf-from-list (quote (0.04154278 0.04154278)) (quote (-0.05474278 -0.05474278)) (quote bpc) 2))) (setf (bpfcolor newbpf) (om-make-color 0 0 0)) (set-name newbpf nil) newbpf)))) (when newobj) newobj) (let ((newobj (when (find-class (quote bpc) nil) (let ((newbpf (simple-bpf-from-list (quote (0.020408428 0.020408428)) (quote (-0.022908427 -0.022908427)) (quote bpc) 2))) (setf (bpfcolor newbpf) (om-make-color 0 0 0)) (set-name newbpf nil) newbpf)))) (when newobj) newobj) (let ((newobj (when (find-class (quote bpc) nil) (let ((newbpf (simple-bpf-from-list (quote (0.057709434 0.057709434)) (quote (-0.06370943 -0.06370943)) (quote bpc) 2))) (setf (bpfcolor newbpf) (om-make-color 0 0 0)) (set-name newbpf nil) newbpf)))) (when newobj) newobj) (let ((newobj (when (find-class (quote bpc) nil) (let ((newbpf (simple-bpf-from-list (quote (0.08953186 0.08953186)) (quote (-0.10843186 -0.10843186)) (quote bpc) 2))) (setf (bpfcolor newbpf) (om-make-color 0 0 0)) (set-name newbpf nil) newbpf)))) (when newobj) newobj) (let ((newobj (when (find-class (quote bpc) nil) (let ((newbpf (simple-bpf-from-list (quote (0.018537093 0.018537093)) (quote (-0.029237094 -0.029237094)) (quote bpc) 2))) (setf (bpfcolor newbpf) (om-make-color 0 0 0)) (set-name newbpf nil) newbpf)))) (when newobj) newobj) (let ((newobj (when (find-class (quote bpc) nil) (let ((newbpf (simple-bpf-from-list (quote (0.0814823 0.0814823)) (quote (-0.10048229 -0.10048229)) (quote bpc) 2))) (setf (bpfcolor newbpf) (om-make-color 0 0 0)) (set-name newbpf nil) newbpf)))) (when newobj) newobj) (let ((newobj (when (find-class (quote bpc) nil) (let ((newbpf (simple-bpf-from-list (quote (0.0362316 0.0362316)) (quote (-0.043031603 -0.043031603)) (quote bpc) 2))) (setf (bpfcolor newbpf) (om-make-color 0 0 0)) (set-name newbpf nil) newbpf)))) (when newobj) newobj) (let ((newobj (when (find-class (quote bpc) nil) (let ((newbpf (simple-bpf-from-list (quote (0.0075334073 0.0075334073)) (quote (-0.020933409 -0.020933409)) (quote bpc) 2))) (setf (bpfcolor newbpf) (om-make-color 0 0 0)) (set-name newbpf nil) newbpf)))) (when newobj) newobj) (let ((newobj (when (find-class (quote bpc) nil) (let ((newbpf (simple-bpf-from-list (quote (0.029369319 0.029369319)) (quote (-0.04906932 -0.04906932)) (quote bpc) 2))) (setf (bpfcolor newbpf) (om-make-color 0 0 0)) (set-name newbpf nil) newbpf)))) (when newobj) newobj) (let ((newobj (when (find-class (quote bpc) nil) (let ((newbpf (simple-bpf-from-list (quote (0.07930629 0.07930629)) (quote (-0.08300629 -0.08300629)) (quote bpc) 2))) (setf (bpfcolor newbpf) (om-make-color 0 0 0)) (set-name newbpf nil) newbpf)))) (when newobj) newobj) (let ((newobj (when (find-class (quote bpc) nil) (let ((newbpf (simple-bpf-from-list (quote (0.078550756 0.078550756)) (quote (-0.08715075 -0.08715075)) (quote bpc) 2))) (setf (bpfcolor newbpf) (om-make-color 0 0 0)) (set-name newbpf nil) newbpf)))) (when newobj) newobj) (let ((newobj (when (find-class (quote bpc) nil) (let ((newbpf (simple-bpf-from-list (quote (0.016270578 0.016270578)) (quote (-0.020870578 -0.020870578)) (quote bpc) 2))) (setf (bpfcolor newbpf) (om-make-color 0 0 0)) (set-name newbpf nil) newbpf)))) (when newobj) newobj) (let ((newobj (when (find-class (quote bpc) nil) (let ((newbpf (simple-bpf-from-list (quote (0.03509426 0.03509426)) (quote (-0.04249426 -0.04249426)) (quote bpc) 2))) (setf (bpfcolor newbpf) (om-make-color 0 0 0)) (set-name newbpf nil) newbpf)))) (when newobj) newobj) (let ((newobj (when (find-class (quote bpc) nil) (let ((newbpf (simple-bpf-from-list (quote (0.06872521 0.06872521)) (quote (-0.07342521 -0.07342521)) (quote bpc) 2))) (setf (bpfcolor newbpf) (om-make-color 0 0 0)) (set-name newbpf nil) newbpf)))) (when newobj) newobj) (let ((newobj (when (find-class (quote bpc) nil) (let ((newbpf (simple-bpf-from-list (quote (0.03642596 0.03642596)) (quote (-0.053525962 -0.053525962)) (quote bpc) 2))) (setf (bpfcolor newbpf) (om-make-color 0 0 0)) (set-name newbpf nil) newbpf)))) (when newobj) newobj) (let ((newobj (when (find-class (quote bpc) nil) (let ((newbpf (simple-bpf-from-list (quote (0.02024448 0.02024448)) (quote (-0.02944448 -0.02944448)) (quote bpc) 2))) (setf (bpfcolor newbpf) (om-make-color 0 0 0)) (set-name newbpf nil) newbpf)))) (when newobj) newobj) (let ((newobj (when (find-class (quote bpc) nil) (let ((newbpf (simple-bpf-from-list (quote (0.030009484 0.030009484)) (quote (-0.033209484 -0.033209484)) (quote bpc) 2))) (setf (bpfcolor newbpf) (om-make-color 0 0 0)) (set-name newbpf nil) newbpf)))) (when newobj) newobj) (let ((newobj (when (find-class (quote bpc) nil) (let ((newbpf (simple-bpf-from-list (quote (0.018385673 0.018385673)) (quote (-0.034885675 -0.034885675)) (quote bpc) 2))) (setf (bpfcolor newbpf) (om-make-color 0 0 0)) (set-name newbpf nil) newbpf)))) (when newobj) newobj) (let ((newobj (when (find-class (quote bpc) nil) (let ((newbpf (simple-bpf-from-list (quote (0.03519107 0.03519107)) (quote (-0.03579107 -0.03579107)) (quote bpc) 2))) (setf (bpfcolor newbpf) (om-make-color 0 0 0)) (set-name newbpf nil) newbpf)))) (when newobj) newobj) (let ((newobj (when (find-class (quote bpc) nil) (let ((newbpf (simple-bpf-from-list (quote (0.08582258 0.08582258)) (quote (-0.09892258 -0.09892258)) (quote bpc) 2))) (setf (bpfcolor newbpf) (om-make-color 0 0 0)) (set-name newbpf nil) newbpf)))) (when newobj) newobj) (let ((newobj (when (find-class (quote bpc) nil) (let ((newbpf (simple-bpf-from-list (quote (0.04853444 0.04853444)) (quote (-0.06083444 -0.06083444)) (quote bpc) 2))) (setf (bpfcolor newbpf) (om-make-color 0 0 0)) (set-name newbpf nil) newbpf)))) (when newobj) newobj) (let ((newobj (when (find-class (quote bpc) nil) (let ((newbpf (simple-bpf-from-list (quote (0.0032885434 0.0032885434)) (quote (-0.004788543 -0.004788543)) (quote bpc) 2))) (setf (bpfcolor newbpf) (om-make-color 0 0 0)) (set-name newbpf nil) newbpf)))) (when newobj) newobj) (let ((newobj (when (find-class (quote bpc) nil) (let ((newbpf (simple-bpf-from-list (quote (0.0066488506 0.0066488506)) (quote (-0.020348849 -0.020348849)) (quote bpc) 2))) (setf (bpfcolor newbpf) (om-make-color 0 0 0)) (set-name newbpf nil) newbpf)))) (when newobj) newobj) (let ((newobj (when (find-class (quote bpc) nil) (let ((newbpf (simple-bpf-from-list (quote (0.077590466 0.077590466)) (quote (-0.08299047 -0.08299047)) (quote bpc) 2))) (setf (bpfcolor newbpf) (om-make-color 0 0 0)) (set-name newbpf nil) newbpf)))) (when newobj) newobj) (let ((newobj (when (find-class (quote bpc) nil) (let ((newbpf (simple-bpf-from-list (quote (0.09420537 0.09420537)) (quote (-0.10510537 -0.10510537)) (quote bpc) 2))) (setf (bpfcolor newbpf) (om-make-color 0 0 0)) (set-name newbpf nil) newbpf)))) (when newobj) newobj) (let ((newobj (when (find-class (quote bpc) nil) (let ((newbpf (simple-bpf-from-list (quote (0.021277095 0.021277095)) (quote (-0.024377093 -0.024377093)) (quote bpc) 2))) (setf (bpfcolor newbpf) (om-make-color 0 0 0)) (set-name newbpf nil) newbpf)))) (when newobj) newobj) (let ((newobj (when (find-class (quote bpc) nil) (let ((newbpf (simple-bpf-from-list (quote (0.08717012 0.08717012)) (quote (-0.10227012 -0.10227012)) (quote bpc) 2))) (setf (bpfcolor newbpf) (om-make-color 0 0 0)) (set-name newbpf nil) newbpf)))) (when newobj) newobj) (let ((newobj (when (find-class (quote bpc) nil) (let ((newbpf (simple-bpf-from-list (quote (0.08746273 0.08746273)) (quote (-0.10666273 -0.10666273)) (quote bpc) 2))) (setf (bpfcolor newbpf) (om-make-color 0 0 0)) (set-name newbpf nil) newbpf)))) (when newobj) newobj) (let ((newobj (when (find-class (quote bpc) nil) (let ((newbpf (simple-bpf-from-list (quote (0.036564183 0.036564183)) (quote (-0.042664186 -0.042664186)) (quote bpc) 2))) (setf (bpfcolor newbpf) (om-make-color 0 0 0)) (set-name newbpf nil) newbpf)))) (when newobj) newobj) (let ((newobj (when (find-class (quote bpc) nil) (let ((newbpf (simple-bpf-from-list (quote (0.040053644 0.040053644)) (quote (-0.053053648 -0.053053648)) (quote bpc) 2))) (setf (bpfcolor newbpf) (om-make-color 0 0 0)) (set-name newbpf nil) newbpf)))) (when newobj) newobj)) :from-file t)) nil nil (pairlis (quote (winsize winpos picture)) (list (om-make-point 335 275) (om-make-point 10 40) nil)) t nil nil nil))) (when (fboundp (quote set-active)) (set-active box nil)) box) (let ((box (om-load-boxcall (quote genfun) "PLOT-POINTS" (quote plot-points) (quote ((om-load-inputfun (quote input-funbox) "list" "POINTS" (list (list -2 2) (list 0 0) (list 1 -1) (list -1 1) (list -4 3) (list -3 4))))) (om-make-point 45 187) nil nil nil nil 1))) (when (fboundp (quote set-active)) (set-active box nil)) box) (let ((box (om-load-boxcall (quote genfun) "LIST-CORRELATION 3" (quote list-correlation) (quote ((om-load-inputfun (quote input-funbox) "list" "DATA" (list (list -2 2) (list 0 0) (list 1 -1) (list -1 1) (list -4 3) (list -3 4))))) (om-make-point 413 181) nil nil nil nil 1))) (when (fboundp (quote set-active)) (set-active box nil)) box) (let ((box (om-load-boxcall (quote abstraction) "positively-correlated-data" (om-load-patch-abs1 "positively-correlated-data" (quote ((let ((box (om-load-boxout "output" 0 (om-make-point 98 392) (quote ((om-load-inputfun (quote input-funbox) "" "out" nil))) nil nil))) (when (fboundp (quote set-active)) (set-active box nil)) box) (let ((box (om-load-boxcall (quote genfun) "OM-RANDOM 2" (quote om-random) (quote ((om-load-inputfun (quote input-funbox) "min" "LOW" 0) (om-load-inputfun (quote input-funbox) "max" "HIGH" 2.0))) (om-make-point 191 50) nil nil nil nil 1))) (when (fboundp (quote set-active)) (set-active box nil)) box) (let ((box (om-load-boxcall (quote lispfun) "LIST 2" (quote list) (quote ((om-load-inputfun (quote input-funbox) "add-input" "add-input" 0) (om-load-inputfun (quote input-funbox) "add-input" "add-input" nil))) (om-make-point 131 197) (om-make-point 104 43) nil nil nil 1))) (when (fboundp (quote set-active)) (set-active box nil)) box) (let ((box (om-load-boxcall (quote genfun) "OM+" (quote om+) (quote ((om-load-inputfun (quote input-funbox) "number or list" "ARG1" 0) (om-load-inputfun (quote input-funbox) "number or list" "ARG2" 0))) (om-make-point 126 255) nil nil nil nil 1))) (when (fboundp (quote set-active)) (set-active box nil)) box) (let ((box (om-load-boxcall (quote genfun) "OM-ROUND" (quote om-round) (quote ((om-load-inputfun (quote input-funbox) "number or list" "N" 0) (om-load-inputfun (quote input-funbox) "number of decimals" "DECIMALS" 2))) (om-make-point 204 133) nil nil nil nil 1))) (when (fboundp (quote set-active)) (set-active box nil)) box) (let ((box (om-load-boxcall (quote genfun) "OM-RANDOM" (quote om-random) (quote ((om-load-inputfun (quote input-funbox) "min" "LOW" 0) (om-load-inputfun (quote input-funbox) "max" "HIGH" 10.0))) (om-make-point 50 179) nil nil nil nil 1))) (when (fboundp (quote set-active)) (set-active box nil)) box) (let ((box (om-load-boxcall (quote genfun) "REPEAT-N" (quote repeat-n) (quote ((om-load-inputfun (quote input-funbox) "something" "SELF" nil) (om-load-inputfun (quote input-funbox) "times" "N" 30))) (om-make-point 116 306) nil nil nil nil 1))) (when (fboundp (quote set-active)) (set-active box nil)) box))) (quote ((6 0 0 0 nil 0) (4 0 2 1 nil 0) (5 0 3 0 nil 0) (2 0 3 1 nil 0) (1 0 4 0 nil 0) (3 0 6 0 nil 0))) 6.18 nil "" (om-make-point 200 200) (om-make-point 500 400)) (quote nil) (om-make-point 1150/3 317/3) nil nil "&" "positively-correlated-data"))) (when (fboundp (quote set-active)) (set-active box nil)) box) (let ((box (om-load-boxcall (quote genfun) "LIST-CORRELATION 2" (quote list-correlation) (quote ((om-load-inputfun (quote input-funbox) "list" "DATA" (list (list -2 2) (list 0 0) (list 1 -1) (list -1 1) (list -4 3) (list -3 4))))) (om-make-point 167 188) nil nil nil nil 1))) (when (fboundp (quote set-active)) (set-active box nil)) box) (let ((box (om-load-boxcall (quote abstraction) "negatively-correlated-data" (om-load-patch-abs1 "negatively-correlated-data" (quote ((let ((box (om-load-boxcall (quote genfun) "OM*" (quote om*) (quote ((om-load-inputfun (quote input-funbox) "number or list" "ARG1" 0) (om-load-inputfun (quote input-funbox) "number or list" "ARG2" (list 1 -1)))) (om-make-point 127 301) nil nil nil nil 1))) (when (fboundp (quote set-active)) (set-active box nil)) box) (let ((box (om-load-boxout "output" 0 (om-make-point 120 409) (quote ((om-load-inputfun (quote input-funbox) "" "out" nil))) nil nil))) (when (fboundp (quote set-active)) (set-active box nil)) box) (let ((box (om-load-boxcall (quote genfun) "OM-RANDOM 2" (quote om-random) (quote ((om-load-inputfun (quote input-funbox) "min" "LOW" 0) (om-load-inputfun (quote input-funbox) "max" "HIGH" 2.0))) (om-make-point 191 50) nil nil nil nil 1))) (when (fboundp (quote set-active)) (set-active box nil)) box) (let ((box (om-load-boxcall (quote lispfun) "LIST 2" (quote list) (quote ((om-load-inputfun (quote input-funbox) "add-input" "add-input" 0) (om-load-inputfun (quote input-funbox) "add-input" "add-input" nil))) (om-make-point 131 197) (om-make-point 104 43) nil nil nil 1))) (when (fboundp (quote set-active)) (set-active box nil)) box) (let ((box (om-load-boxcall (quote genfun) "OM+" (quote om+) (quote ((om-load-inputfun (quote input-funbox) "number or list" "ARG1" 0) (om-load-inputfun (quote input-funbox) "number or list" "ARG2" 0))) (om-make-point 126 255) nil nil nil nil 1))) (when (fboundp (quote set-active)) (set-active box nil)) box) (let ((box (om-load-boxcall (quote genfun) "OM-ROUND" (quote om-round) (quote ((om-load-inputfun (quote input-funbox) "number or list" "N" 0) (om-load-inputfun (quote input-funbox) "number of decimals" "DECIMALS" 2))) (om-make-point 204 133) nil nil nil nil 1))) (when (fboundp (quote set-active)) (set-active box nil)) box) (let ((box (om-load-boxcall (quote genfun) "OM-RANDOM" (quote om-random) (quote ((om-load-inputfun (quote input-funbox) "min" "LOW" 0) (om-load-inputfun (quote input-funbox) "max" "HIGH" 10.0))) (om-make-point 50 179) nil nil nil nil 1))) (when (fboundp (quote set-active)) (set-active box nil)) box) (let ((box (om-load-boxcall (quote genfun) "REPEAT-N" (quote repeat-n) (quote ((om-load-inputfun (quote input-funbox) "something" "SELF" nil) (om-load-inputfun (quote input-funbox) "times" "N" 30))) (om-make-point 116 336) nil nil nil nil 1))) (when (fboundp (quote set-active)) (set-active box nil)) box))) (quote ((4 0 0 0 nil 0) (7 0 1 0 nil 0) (5 0 3 1 nil 0) (6 0 4 0 nil 0) (3 0 4 1 nil 0) (2 0 5 0 nil 0) (0 0 7 0 nil 0))) 6.18 nil "" (om-make-point 200 200) (om-make-point 500 400)) (quote nil) (om-make-point 406/3 338/3) nil nil "&" "negatively-correlated-data"))) (when (fboundp (quote set-active)) (set-active box nil)) box) (let ((box (om-load-boxcall (quote lispfun) "LIST" (quote list) (quote ((om-load-inputfun (quote input-funbox) "add-input" "add-input" 0) (om-load-inputfun (quote input-funbox) "add-input" "add-input" 0) (om-load-inputfun (quote input-funbox) "add-input" "add-input" 0))) (om-make-point 343 382) (om-make-point 223 43) nil nil nil 1))) (when (fboundp (quote set-active)) (set-active box nil)) box) (let ((box (om-load-boxcall (quote genfun) "LIST-CORRELATION" (quote list-correlation) (quote ((om-load-inputfun (quote input-funbox) "list" "DATA" (list (list -2 2) (list 0 0) (list 1 -1) (list -1 1) (list -4 3) (list -3 4))))) (om-make-point 693 178) nil nil nil nil 1))) (when (fboundp (quote set-active)) (set-active box nil)) box) (let ((box (om-load-boxcall (quote abstraction) "uncorrelated-data" (om-load-patch-abs1 "uncorrelated-data" (quote ((let ((box (om-load-boxcall (quote lispfun) "LIST" (quote list) (quote ((om-load-inputfun (quote input-funbox) "add-input" "add-input" 1) (om-load-inputfun (quote input-funbox) "add-input" "add-input" 0))) (om-make-point 209 299) nil nil nil nil 1))) (when (fboundp (quote set-active)) (set-active box nil)) box) (let ((box (om-load-boxcall (quote genfun) "OM-RANDOM 3" (quote om-random) (quote ((om-load-inputfun (quote input-funbox) "min" "LOW" -2) (om-load-inputfun (quote input-funbox) "max" "HIGH" 2))) (om-make-point 241 215) nil nil nil nil 1))) (when (fboundp (quote set-active)) (set-active box nil)) box) (let ((box (om-load-boxcall (quote genfun) "OM*" (quote om*) (quote ((om-load-inputfun (quote input-funbox) "number or list" "ARG1" 1) (om-load-inputfun (quote input-funbox) "number or list" "ARG2" (list 1 1)))) (om-make-point 78 308) nil nil nil nil 1))) (when (fboundp (quote set-active)) (set-active box nil)) box) (let ((box (om-load-boxcall (quote genfun) "OM-RANDOM 2" (quote om-random) (quote ((om-load-inputfun (quote input-funbox) "min" "LOW" 0) (om-load-inputfun (quote input-funbox) "max" "HIGH" 10))) (om-make-point 191 52) nil nil nil nil 1))) (when (fboundp (quote set-active)) (set-active box nil)) box) (let ((box (om-load-boxout "output" 0 (om-make-point 71 419) (quote ((om-load-inputfun (quote input-funbox) "" "out" nil))) nil nil))) (when (fboundp (quote set-active)) (set-active box nil)) box) (let ((box (om-load-boxcall (quote lispfun) "LIST 2" (quote list) (quote ((om-load-inputfun (quote input-funbox) "add-input" "add-input" 0) (om-load-inputfun (quote input-funbox) "add-input" "add-input" nil))) (om-make-point 131 197) (om-make-point 104 43) nil nil nil 1))) (when (fboundp (quote set-active)) (set-active box nil)) box) (let ((box (om-load-boxcall (quote genfun) "OM+" (quote om+) (quote ((om-load-inputfun (quote input-funbox) "number or list" "ARG1" 0) (om-load-inputfun (quote input-funbox) "number or list" "ARG2" 0))) (om-make-point 77 255) nil nil nil nil 1))) (when (fboundp (quote set-active)) (set-active box nil)) box) (let ((box (om-load-boxcall (quote genfun) "OM-ROUND" (quote om-round) (quote ((om-load-inputfun (quote input-funbox) "number or list" "N" 0) (om-load-inputfun (quote input-funbox) "number of decimals" "DECIMALS" 2))) (om-make-point 204 133) nil nil nil nil 1))) (when (fboundp (quote set-active)) (set-active box nil)) box) (let ((box (om-load-boxcall (quote genfun) "OM-RANDOM" (quote om-random) (quote ((om-load-inputfun (quote input-funbox) "min" "LOW" 0) (om-load-inputfun (quote input-funbox) "max" "HIGH" 10))) (om-make-point 50 59) nil nil nil nil 1))) (when (fboundp (quote set-active)) (set-active box nil)) box) (let ((box (om-load-boxcall (quote genfun) "REPEAT-N" (quote repeat-n) (quote ((om-load-inputfun (quote input-funbox) "something" "SELF" nil) (om-load-inputfun (quote input-funbox) "times" "N" 30))) (om-make-point 67 346) nil nil nil nil 1))) (when (fboundp (quote set-active)) (set-active box nil)) box))) (quote ((1 0 0 1 nil 0) (6 0 2 0 nil 0) (0 0 2 1 nil 0) (9 0 4 0 nil 0) (7 0 5 1 nil 0) (8 0 6 0 nil 0) (5 0 6 1 nil 0) (3 0 7 0 nil 0) (2 0 9 0 nil 0))) 6.18 nil "" (om-make-point 200 200) (om-make-point 500 400)) (quote nil) (om-make-point 2056/3 106) nil (list (list (list 7 14.0) (list 4 0.0) (list 0 -2.0) (list 7 -14.0) (list 8 0.0) (list 10 -24.0) (list 2 -10.0) (list 2 24.0) (list 10 40.0) (list 8 0.0) (list 3 0.0) (list 2 -7.0) (list 3 -26.0) (list 1 0.0) (list 9 9.0) (list 2 11.0) (list 10 32.0) (list 2 12.0) (list 0 5.0) (list 4 -14.0) (list 10 40.0) (list 8 11.0) (list 3 -12.0) (list 8 -10.0) (list 3 13.0) (list 6 0.0) (list 4 -7.0) (list 7 -10.0) (list 2 20.0) (list 5 28.0))) nil "uncorrelated-data"))) (when (fboundp (quote set-active)) (set-active box nil)) box))) (quote ((14 0 3 0 nil 0) (5 0 4 0 nil 0) (16 0 5 0 nil 0) (7 0 6 0 nil 0) (11 0 7 0 nil 0) (9 0 8 0 nil 0) (13 0 9 0 nil 0) (11 0 10 0 nil 0) (13 0 12 0 nil 0) (12 0 14 0 ((om-make-point 209 261) (om-make-point 210 374) (om-make-point 399 375) (om-make-point 399 382)) 0) (10 0 14 1 nil 0) (15 0 14 2 ((om-make-point 735 251) (om-make-point 737 377) (om-make-point 511 375) (om-make-point 511 382)) 0) (16 0 15 0 nil 0))) nil 6.18))
